G04 EAGLE Gerber RS-274X export*
G75*
%MOMM*%
%FSLAX34Y34*%
%LPD*%
%INSoldermask Top*%
%IPPOS*%
%AMOC8*
5,1,8,0,0,1.08239X$1,22.5*%
G01*
%ADD10R,1.103200X0.903200*%
%ADD11R,2.003200X2.953200*%
%ADD12R,5.703200X2.053200*%
%ADD13R,0.903200X1.103200*%
%ADD14P,1.649562X8X22.500000*%
%ADD15R,2.003200X1.903200*%
%ADD16R,2.303200X1.473200*%
%ADD17R,0.903200X0.803200*%
%ADD18R,0.803200X0.903200*%
%ADD19R,1.701800X2.209800*%
%ADD20R,4.013200X2.209800*%
%ADD21C,1.727200*%
%ADD22R,1.003200X1.403200*%
%ADD23R,2.703200X3.453200*%
%ADD24R,1.403200X1.003200*%
%ADD25R,1.203200X1.603200*%
%ADD26R,5.537200X2.133600*%
%ADD27R,2.103200X1.503200*%
%ADD28R,1.503200X1.703200*%
%ADD29R,1.703200X1.503200*%
%ADD30R,2.403200X4.403200*%
%ADD31R,1.003200X1.103200*%
%ADD32R,1.603200X1.203200*%
%ADD33P,2.144431X8X22.500000*%
%ADD34C,1.981200*%
%ADD35C,1.879600*%
%ADD36R,0.762000X1.473200*%
%ADD37R,2.235200X0.863600*%
%ADD38R,0.553200X1.103200*%
%ADD39C,3.203200*%
%ADD40R,1.625600X0.736600*%
%ADD41C,0.343072*%
%ADD42R,2.703200X2.203200*%
%ADD43R,3.503200X2.203200*%
%ADD44R,3.303200X0.703200*%
%ADD45C,1.103200*%
%ADD46R,1.711200X1.711200*%
%ADD47C,1.711200*%
%ADD48P,1.852186X8X292.500000*%
%ADD49R,5.203200X4.803200*%
%ADD50C,1.009600*%
%ADD51C,1.409600*%
%ADD52C,1.703200*%
%ADD53C,4.419200*%


D10*
X47200Y415200D03*
X47200Y428200D03*
D11*
X139600Y77250D03*
X139600Y24750D03*
D10*
X169300Y76300D03*
X169300Y63300D03*
D12*
X655000Y155500D03*
X655000Y104500D03*
X655000Y184500D03*
X655000Y235500D03*
D10*
X564300Y344800D03*
X564300Y331800D03*
D12*
X655000Y70500D03*
X655000Y19500D03*
X585000Y184500D03*
X585000Y235500D03*
D13*
X126700Y164300D03*
X139700Y164300D03*
D10*
X199700Y134200D03*
X199700Y147200D03*
D13*
X43300Y352200D03*
X30300Y352200D03*
D10*
X255700Y419700D03*
X255700Y432700D03*
D11*
X286400Y421350D03*
X286400Y473850D03*
X181400Y420250D03*
X181400Y472750D03*
D13*
X206200Y499300D03*
X219200Y499300D03*
D10*
X302800Y681800D03*
X302800Y668800D03*
X207800Y677600D03*
X207800Y664600D03*
X480700Y587700D03*
X480700Y600700D03*
D13*
X498500Y585000D03*
X511500Y585000D03*
X314300Y620700D03*
X301300Y620700D03*
X497200Y484300D03*
X510200Y484300D03*
X85700Y369300D03*
X98700Y369300D03*
D10*
X395700Y593500D03*
X395700Y606500D03*
D13*
X339800Y495700D03*
X326800Y495700D03*
D10*
X449300Y453300D03*
X449300Y440300D03*
X382200Y593500D03*
X382200Y606500D03*
D13*
X498500Y545000D03*
X511500Y545000D03*
X498500Y560000D03*
X511500Y560000D03*
X498500Y530000D03*
X511500Y530000D03*
X636500Y530000D03*
X623500Y530000D03*
X551500Y487500D03*
X538500Y487500D03*
X380300Y830700D03*
X367300Y830700D03*
D10*
X80700Y392200D03*
X80700Y405200D03*
D13*
X551500Y500000D03*
X538500Y500000D03*
X553500Y530000D03*
X566500Y530000D03*
X368500Y325000D03*
X381500Y325000D03*
X268500Y325000D03*
X281500Y325000D03*
X468500Y320000D03*
X481500Y320000D03*
X368500Y420000D03*
X381500Y420000D03*
X313500Y325000D03*
X326500Y325000D03*
D12*
X515000Y19500D03*
X515000Y70500D03*
X515000Y99500D03*
X515000Y150500D03*
D14*
X613800Y273600D03*
X664600Y273600D03*
D11*
X203600Y77250D03*
X203600Y24750D03*
D15*
X605500Y30000D03*
X564500Y30000D03*
D16*
X94900Y313000D03*
X94900Y273400D03*
D17*
X583700Y382100D03*
X583700Y401100D03*
X563700Y391600D03*
D18*
X109500Y663700D03*
X90500Y663700D03*
X100000Y643700D03*
D15*
X564500Y60000D03*
X605500Y60000D03*
X605500Y90000D03*
X564500Y90000D03*
X564500Y120000D03*
X605500Y120000D03*
X605500Y150000D03*
X564500Y150000D03*
D16*
X115100Y208500D03*
X115100Y248100D03*
D19*
X233694Y640104D03*
X256554Y640104D03*
X279414Y640104D03*
D20*
X256300Y703096D03*
D21*
X712380Y653000D02*
X727620Y653000D01*
X727620Y627600D02*
X712380Y627600D01*
X712380Y602200D02*
X727620Y602200D01*
X727620Y812700D02*
X712380Y812700D01*
X712380Y787300D02*
X727620Y787300D01*
X727620Y745000D02*
X712380Y745000D01*
X712380Y719600D02*
X727620Y719600D01*
X727620Y694200D02*
X712380Y694200D01*
X712380Y561000D02*
X727620Y561000D01*
X727620Y535600D02*
X712380Y535600D01*
X712380Y510200D02*
X727620Y510200D01*
X727620Y484800D02*
X712380Y484800D01*
X712380Y459400D02*
X727620Y459400D01*
D22*
X77100Y18600D03*
X95100Y18600D03*
D23*
X247600Y368400D03*
X187600Y368400D03*
D24*
X411400Y594000D03*
X411400Y612000D03*
D22*
X494100Y621400D03*
X476100Y621400D03*
D25*
X650200Y356500D03*
X640700Y378500D03*
X659700Y378500D03*
D26*
X555340Y573900D03*
X651860Y573900D03*
D27*
X576800Y499600D03*
X576800Y444600D03*
X608800Y444600D03*
X608800Y499600D03*
D17*
X20800Y430800D03*
X20800Y420800D03*
D18*
X641700Y402300D03*
X651700Y402300D03*
D17*
X102600Y404800D03*
X102600Y394800D03*
D28*
X99500Y72400D03*
X80500Y72400D03*
X724500Y240000D03*
X705500Y240000D03*
X705500Y215000D03*
X724500Y215000D03*
X724500Y190000D03*
X705500Y190000D03*
D18*
X696700Y275400D03*
X686700Y275400D03*
X72800Y182300D03*
X82800Y182300D03*
X646100Y322700D03*
X636100Y322700D03*
D17*
X542700Y335000D03*
X542700Y345000D03*
D18*
X192500Y277600D03*
X202500Y277600D03*
X191100Y201200D03*
X181100Y201200D03*
D28*
X158400Y187700D03*
X139400Y187700D03*
D18*
X82600Y332400D03*
X92600Y332400D03*
X182200Y847300D03*
X192200Y847300D03*
D17*
X215000Y705000D03*
X215000Y715000D03*
X177700Y768300D03*
X177700Y778300D03*
D18*
X255600Y772700D03*
X245600Y772700D03*
D17*
X215000Y790300D03*
X215000Y780300D03*
X607300Y389500D03*
X607300Y379500D03*
D18*
X53400Y622700D03*
X43400Y622700D03*
D17*
X121200Y279500D03*
X121200Y289500D03*
D18*
X524200Y377400D03*
X514200Y377400D03*
X471900Y417600D03*
X481900Y417600D03*
X82700Y622300D03*
X92700Y622300D03*
X408900Y686200D03*
X398900Y686200D03*
D17*
X162600Y711500D03*
X162600Y701500D03*
D18*
X128800Y677300D03*
X138800Y677300D03*
D17*
X688800Y822200D03*
X688800Y812200D03*
X41200Y802200D03*
X41200Y812200D03*
D18*
X135000Y552500D03*
X125000Y552500D03*
X41400Y237400D03*
X31400Y237400D03*
X135000Y540000D03*
X125000Y540000D03*
X290400Y777400D03*
X280400Y777400D03*
D17*
X348800Y810500D03*
X348800Y800500D03*
X370000Y675000D03*
X370000Y685000D03*
D29*
X326200Y808800D03*
X326200Y827800D03*
D18*
X365000Y795000D03*
X375000Y795000D03*
D17*
X365000Y300000D03*
X365000Y290000D03*
X265000Y300000D03*
X265000Y290000D03*
X465000Y300000D03*
X465000Y290000D03*
X365000Y400000D03*
X365000Y390000D03*
D28*
X524500Y230000D03*
X505500Y230000D03*
D17*
X310000Y300000D03*
X310000Y290000D03*
X385000Y300000D03*
X385000Y290000D03*
X285000Y300000D03*
X285000Y290000D03*
X485000Y300000D03*
X485000Y290000D03*
X385000Y400000D03*
X385000Y390000D03*
X330000Y300000D03*
X330000Y290000D03*
D29*
X500000Y180500D03*
X500000Y199500D03*
X530000Y180500D03*
X530000Y199500D03*
D18*
X639400Y337700D03*
X629400Y337700D03*
D28*
X104500Y42400D03*
X85500Y42400D03*
D30*
X60800Y751600D03*
X60800Y681600D03*
D31*
X190100Y295900D03*
X209100Y295900D03*
X199600Y315900D03*
X199500Y824100D03*
X180500Y824100D03*
X190000Y804100D03*
D25*
X241500Y823500D03*
X251000Y801500D03*
X232000Y801500D03*
D31*
X511500Y392500D03*
X530500Y392500D03*
X521000Y412500D03*
D25*
X472800Y376500D03*
X463300Y398500D03*
X482300Y398500D03*
X132200Y722400D03*
X141700Y700400D03*
X122700Y700400D03*
D32*
X298500Y815000D03*
X276500Y805500D03*
X276500Y824500D03*
D25*
X316000Y777400D03*
X325500Y755400D03*
X306500Y755400D03*
D32*
X168500Y285600D03*
X146500Y276100D03*
X146500Y295100D03*
D31*
X132700Y380900D03*
X151700Y380900D03*
X142200Y400900D03*
X125300Y316900D03*
X144300Y316900D03*
X134800Y336900D03*
X47100Y199100D03*
X28100Y199100D03*
X37600Y179100D03*
D25*
X75100Y233500D03*
X84600Y211500D03*
X65600Y211500D03*
D32*
X608500Y336200D03*
X586500Y326700D03*
X586500Y345700D03*
X213500Y230000D03*
X191500Y220500D03*
X191500Y239500D03*
X146500Y230000D03*
X168500Y239500D03*
X168500Y220500D03*
D33*
X241400Y227000D03*
X241400Y47000D03*
X421400Y227000D03*
X421400Y47000D03*
D34*
X331400Y155000D03*
X331400Y119000D03*
X349400Y137000D03*
X313400Y137000D03*
D35*
X331400Y249000D03*
X331400Y25000D03*
X443400Y137000D03*
X219400Y137000D03*
D36*
X21702Y373046D03*
X31100Y373046D03*
X40498Y373046D03*
X40498Y398954D03*
X21702Y398954D03*
D37*
X174934Y105550D03*
X113466Y105550D03*
X174934Y118250D03*
X174934Y130950D03*
X113466Y118250D03*
X113466Y130950D03*
X174934Y143650D03*
X113466Y143650D03*
D38*
X231150Y474550D03*
X224650Y474550D03*
X218150Y474550D03*
X211650Y474550D03*
X211650Y417050D03*
X218150Y417050D03*
X224650Y417050D03*
X231150Y417050D03*
D39*
X666500Y449200D03*
X666500Y874200D03*
X83500Y874200D03*
X83500Y449200D03*
D21*
X527400Y866580D02*
X527400Y881820D01*
X502000Y881820D02*
X502000Y866580D01*
X476600Y866580D02*
X476600Y881820D01*
X451200Y881820D02*
X451200Y866580D01*
X425800Y866580D02*
X425800Y881820D01*
X400400Y881820D02*
X400400Y866580D01*
X375000Y866580D02*
X375000Y881820D01*
X349600Y881820D02*
X349600Y866580D01*
X324200Y866580D02*
X324200Y881820D01*
X298800Y881820D02*
X298800Y866580D01*
X273400Y866580D02*
X273400Y881820D01*
X248000Y881820D02*
X248000Y866580D01*
X222600Y866580D02*
X222600Y881820D01*
D40*
X278160Y600950D03*
X278160Y588250D03*
X278160Y575550D03*
X278160Y562850D03*
X334040Y562850D03*
X334040Y575550D03*
X334040Y588250D03*
X334040Y600950D03*
D41*
X456499Y496301D02*
X456499Y494899D01*
X456499Y496301D02*
X470701Y496301D01*
X470701Y494899D01*
X456499Y494899D01*
X456499Y499899D02*
X456499Y501301D01*
X470701Y501301D01*
X470701Y499899D01*
X456499Y499899D01*
X456499Y504899D02*
X456499Y506301D01*
X470701Y506301D01*
X470701Y504899D01*
X456499Y504899D01*
X456499Y509899D02*
X456499Y511301D01*
X470701Y511301D01*
X470701Y509899D01*
X456499Y509899D01*
X456499Y514899D02*
X456499Y516301D01*
X470701Y516301D01*
X470701Y514899D01*
X456499Y514899D01*
X456499Y519899D02*
X456499Y521301D01*
X470701Y521301D01*
X470701Y519899D01*
X456499Y519899D01*
X456499Y524899D02*
X456499Y526301D01*
X470701Y526301D01*
X470701Y524899D01*
X456499Y524899D01*
X456499Y529899D02*
X456499Y531301D01*
X470701Y531301D01*
X470701Y529899D01*
X456499Y529899D01*
X456499Y534899D02*
X456499Y536301D01*
X470701Y536301D01*
X470701Y534899D01*
X456499Y534899D01*
X456499Y539899D02*
X456499Y541301D01*
X470701Y541301D01*
X470701Y539899D01*
X456499Y539899D01*
X456499Y544899D02*
X456499Y546301D01*
X470701Y546301D01*
X470701Y544899D01*
X456499Y544899D01*
X456499Y549899D02*
X456499Y551301D01*
X470701Y551301D01*
X470701Y549899D01*
X456499Y549899D01*
X450001Y572001D02*
X448599Y572001D01*
X450001Y572001D02*
X450001Y557799D01*
X448599Y557799D01*
X448599Y572001D01*
X448599Y561058D02*
X450001Y561058D01*
X450001Y564317D02*
X448599Y564317D01*
X448599Y567576D02*
X450001Y567576D01*
X450001Y570835D02*
X448599Y570835D01*
X445001Y572001D02*
X443599Y572001D01*
X445001Y572001D02*
X445001Y557799D01*
X443599Y557799D01*
X443599Y572001D01*
X443599Y561058D02*
X445001Y561058D01*
X445001Y564317D02*
X443599Y564317D01*
X443599Y567576D02*
X445001Y567576D01*
X445001Y570835D02*
X443599Y570835D01*
X440001Y572001D02*
X438599Y572001D01*
X440001Y572001D02*
X440001Y557799D01*
X438599Y557799D01*
X438599Y572001D01*
X438599Y561058D02*
X440001Y561058D01*
X440001Y564317D02*
X438599Y564317D01*
X438599Y567576D02*
X440001Y567576D01*
X440001Y570835D02*
X438599Y570835D01*
X435001Y572001D02*
X433599Y572001D01*
X435001Y572001D02*
X435001Y557799D01*
X433599Y557799D01*
X433599Y572001D01*
X433599Y561058D02*
X435001Y561058D01*
X435001Y564317D02*
X433599Y564317D01*
X433599Y567576D02*
X435001Y567576D01*
X435001Y570835D02*
X433599Y570835D01*
X430001Y572001D02*
X428599Y572001D01*
X430001Y572001D02*
X430001Y557799D01*
X428599Y557799D01*
X428599Y572001D01*
X428599Y561058D02*
X430001Y561058D01*
X430001Y564317D02*
X428599Y564317D01*
X428599Y567576D02*
X430001Y567576D01*
X430001Y570835D02*
X428599Y570835D01*
X425001Y572001D02*
X423599Y572001D01*
X425001Y572001D02*
X425001Y557799D01*
X423599Y557799D01*
X423599Y572001D01*
X423599Y561058D02*
X425001Y561058D01*
X425001Y564317D02*
X423599Y564317D01*
X423599Y567576D02*
X425001Y567576D01*
X425001Y570835D02*
X423599Y570835D01*
X420001Y572001D02*
X418599Y572001D01*
X420001Y572001D02*
X420001Y557799D01*
X418599Y557799D01*
X418599Y572001D01*
X418599Y561058D02*
X420001Y561058D01*
X420001Y564317D02*
X418599Y564317D01*
X418599Y567576D02*
X420001Y567576D01*
X420001Y570835D02*
X418599Y570835D01*
X415001Y572001D02*
X413599Y572001D01*
X415001Y572001D02*
X415001Y557799D01*
X413599Y557799D01*
X413599Y572001D01*
X413599Y561058D02*
X415001Y561058D01*
X415001Y564317D02*
X413599Y564317D01*
X413599Y567576D02*
X415001Y567576D01*
X415001Y570835D02*
X413599Y570835D01*
X410001Y572001D02*
X408599Y572001D01*
X410001Y572001D02*
X410001Y557799D01*
X408599Y557799D01*
X408599Y572001D01*
X408599Y561058D02*
X410001Y561058D01*
X410001Y564317D02*
X408599Y564317D01*
X408599Y567576D02*
X410001Y567576D01*
X410001Y570835D02*
X408599Y570835D01*
X405001Y572001D02*
X403599Y572001D01*
X405001Y572001D02*
X405001Y557799D01*
X403599Y557799D01*
X403599Y572001D01*
X403599Y561058D02*
X405001Y561058D01*
X405001Y564317D02*
X403599Y564317D01*
X403599Y567576D02*
X405001Y567576D01*
X405001Y570835D02*
X403599Y570835D01*
X400001Y572001D02*
X398599Y572001D01*
X400001Y572001D02*
X400001Y557799D01*
X398599Y557799D01*
X398599Y572001D01*
X398599Y561058D02*
X400001Y561058D01*
X400001Y564317D02*
X398599Y564317D01*
X398599Y567576D02*
X400001Y567576D01*
X400001Y570835D02*
X398599Y570835D01*
X395001Y572001D02*
X393599Y572001D01*
X395001Y572001D02*
X395001Y557799D01*
X393599Y557799D01*
X393599Y572001D01*
X393599Y561058D02*
X395001Y561058D01*
X395001Y564317D02*
X393599Y564317D01*
X393599Y567576D02*
X395001Y567576D01*
X395001Y570835D02*
X393599Y570835D01*
X372899Y551301D02*
X372899Y549899D01*
X372899Y551301D02*
X387101Y551301D01*
X387101Y549899D01*
X372899Y549899D01*
X372899Y546301D02*
X372899Y544899D01*
X372899Y546301D02*
X387101Y546301D01*
X387101Y544899D01*
X372899Y544899D01*
X372899Y541301D02*
X372899Y539899D01*
X372899Y541301D02*
X387101Y541301D01*
X387101Y539899D01*
X372899Y539899D01*
X372899Y536301D02*
X372899Y534899D01*
X372899Y536301D02*
X387101Y536301D01*
X387101Y534899D01*
X372899Y534899D01*
X372899Y531301D02*
X372899Y529899D01*
X372899Y531301D02*
X387101Y531301D01*
X387101Y529899D01*
X372899Y529899D01*
X372899Y526301D02*
X372899Y524899D01*
X372899Y526301D02*
X387101Y526301D01*
X387101Y524899D01*
X372899Y524899D01*
X372899Y521301D02*
X372899Y519899D01*
X372899Y521301D02*
X387101Y521301D01*
X387101Y519899D01*
X372899Y519899D01*
X372899Y516301D02*
X372899Y514899D01*
X372899Y516301D02*
X387101Y516301D01*
X387101Y514899D01*
X372899Y514899D01*
X372899Y511301D02*
X372899Y509899D01*
X372899Y511301D02*
X387101Y511301D01*
X387101Y509899D01*
X372899Y509899D01*
X372899Y506301D02*
X372899Y504899D01*
X372899Y506301D02*
X387101Y506301D01*
X387101Y504899D01*
X372899Y504899D01*
X372899Y501301D02*
X372899Y499899D01*
X372899Y501301D02*
X387101Y501301D01*
X387101Y499899D01*
X372899Y499899D01*
X372899Y496301D02*
X372899Y494899D01*
X372899Y496301D02*
X387101Y496301D01*
X387101Y494899D01*
X372899Y494899D01*
X393599Y488401D02*
X395001Y488401D01*
X395001Y474199D01*
X393599Y474199D01*
X393599Y488401D01*
X393599Y477458D02*
X395001Y477458D01*
X395001Y480717D02*
X393599Y480717D01*
X393599Y483976D02*
X395001Y483976D01*
X395001Y487235D02*
X393599Y487235D01*
X398599Y488401D02*
X400001Y488401D01*
X400001Y474199D01*
X398599Y474199D01*
X398599Y488401D01*
X398599Y477458D02*
X400001Y477458D01*
X400001Y480717D02*
X398599Y480717D01*
X398599Y483976D02*
X400001Y483976D01*
X400001Y487235D02*
X398599Y487235D01*
X403599Y488401D02*
X405001Y488401D01*
X405001Y474199D01*
X403599Y474199D01*
X403599Y488401D01*
X403599Y477458D02*
X405001Y477458D01*
X405001Y480717D02*
X403599Y480717D01*
X403599Y483976D02*
X405001Y483976D01*
X405001Y487235D02*
X403599Y487235D01*
X408599Y488401D02*
X410001Y488401D01*
X410001Y474199D01*
X408599Y474199D01*
X408599Y488401D01*
X408599Y477458D02*
X410001Y477458D01*
X410001Y480717D02*
X408599Y480717D01*
X408599Y483976D02*
X410001Y483976D01*
X410001Y487235D02*
X408599Y487235D01*
X413599Y488401D02*
X415001Y488401D01*
X415001Y474199D01*
X413599Y474199D01*
X413599Y488401D01*
X413599Y477458D02*
X415001Y477458D01*
X415001Y480717D02*
X413599Y480717D01*
X413599Y483976D02*
X415001Y483976D01*
X415001Y487235D02*
X413599Y487235D01*
X418599Y488401D02*
X420001Y488401D01*
X420001Y474199D01*
X418599Y474199D01*
X418599Y488401D01*
X418599Y477458D02*
X420001Y477458D01*
X420001Y480717D02*
X418599Y480717D01*
X418599Y483976D02*
X420001Y483976D01*
X420001Y487235D02*
X418599Y487235D01*
X423599Y488401D02*
X425001Y488401D01*
X425001Y474199D01*
X423599Y474199D01*
X423599Y488401D01*
X423599Y477458D02*
X425001Y477458D01*
X425001Y480717D02*
X423599Y480717D01*
X423599Y483976D02*
X425001Y483976D01*
X425001Y487235D02*
X423599Y487235D01*
X428599Y488401D02*
X430001Y488401D01*
X430001Y474199D01*
X428599Y474199D01*
X428599Y488401D01*
X428599Y477458D02*
X430001Y477458D01*
X430001Y480717D02*
X428599Y480717D01*
X428599Y483976D02*
X430001Y483976D01*
X430001Y487235D02*
X428599Y487235D01*
X433599Y488401D02*
X435001Y488401D01*
X435001Y474199D01*
X433599Y474199D01*
X433599Y488401D01*
X433599Y477458D02*
X435001Y477458D01*
X435001Y480717D02*
X433599Y480717D01*
X433599Y483976D02*
X435001Y483976D01*
X435001Y487235D02*
X433599Y487235D01*
X438599Y488401D02*
X440001Y488401D01*
X440001Y474199D01*
X438599Y474199D01*
X438599Y488401D01*
X438599Y477458D02*
X440001Y477458D01*
X440001Y480717D02*
X438599Y480717D01*
X438599Y483976D02*
X440001Y483976D01*
X440001Y487235D02*
X438599Y487235D01*
X443599Y488401D02*
X445001Y488401D01*
X445001Y474199D01*
X443599Y474199D01*
X443599Y488401D01*
X443599Y477458D02*
X445001Y477458D01*
X445001Y480717D02*
X443599Y480717D01*
X443599Y483976D02*
X445001Y483976D01*
X445001Y487235D02*
X443599Y487235D01*
X448599Y488401D02*
X450001Y488401D01*
X450001Y474199D01*
X448599Y474199D01*
X448599Y488401D01*
X448599Y477458D02*
X450001Y477458D01*
X450001Y480717D02*
X448599Y480717D01*
X448599Y483976D02*
X450001Y483976D01*
X450001Y487235D02*
X448599Y487235D01*
D42*
X23300Y497400D03*
X23300Y586400D03*
D43*
X82300Y497400D03*
X82300Y586400D03*
D44*
X83300Y557900D03*
X83300Y549900D03*
X83300Y541900D03*
X83300Y533900D03*
X83300Y525900D03*
D45*
X53300Y563900D03*
X53300Y519900D03*
D46*
X40250Y287500D03*
D47*
X40250Y312500D03*
D24*
X150000Y436000D03*
X150000Y454000D03*
D48*
X713500Y145500D03*
X713500Y95500D03*
D49*
X675000Y742000D03*
X382000Y742000D03*
D50*
X355000Y590000D03*
X350000Y485000D03*
X460000Y470000D03*
X590000Y255000D03*
D51*
X120000Y20000D03*
X85000Y155000D03*
X210000Y205000D03*
D50*
X410000Y305000D03*
X381500Y310000D03*
X326500Y310000D03*
X281500Y310000D03*
X66500Y612500D03*
X450000Y415000D03*
X133000Y274500D03*
X465000Y770000D03*
X510000Y604000D03*
X500500Y571944D03*
X433500Y498000D03*
X485000Y735000D03*
X295000Y565000D03*
X310000Y595000D03*
X380000Y815000D03*
X295000Y795000D03*
X300000Y605000D03*
X255000Y620000D03*
X310000Y415000D03*
X310000Y375000D03*
X670000Y420000D03*
X600000Y400000D03*
X365000Y610000D03*
X382500Y619000D03*
X465000Y485000D03*
X465000Y670000D03*
X110000Y570000D03*
X65000Y405000D03*
X45000Y605000D03*
X449500Y537500D03*
X503000Y430000D03*
X550000Y390000D03*
X441000Y546044D03*
X620000Y395000D03*
X133000Y131000D03*
X115000Y90000D03*
D52*
X205000Y105000D03*
X145000Y115000D03*
D50*
X150000Y145000D03*
X150000Y205000D03*
X205000Y185000D03*
X145000Y130000D03*
X200000Y785000D03*
X210000Y730000D03*
X490000Y575000D03*
X535000Y660000D03*
X350000Y665000D03*
X240000Y755000D03*
X125000Y395000D03*
X473000Y559000D03*
X459500Y571000D03*
X517500Y627500D03*
X582750Y627250D03*
X315000Y530000D03*
X370000Y640000D03*
X575000Y660000D03*
X325000Y540000D03*
X380000Y630000D03*
X585000Y640000D03*
X630000Y450000D03*
X441000Y530000D03*
X406256Y545000D03*
X360000Y475000D03*
X320000Y455000D03*
X335000Y405000D03*
X515000Y445000D03*
X386000Y440000D03*
X385000Y479500D03*
X395000Y510000D03*
X502000Y447500D03*
X395500Y447500D03*
X487000Y454500D03*
X405000Y453500D03*
X350000Y295000D03*
X465000Y580000D03*
X520000Y648885D03*
X352000Y649000D03*
X145000Y625000D03*
X400000Y390041D03*
X423500Y407000D03*
X431256Y433044D03*
X342000Y443500D03*
X440000Y395000D03*
X480000Y345000D03*
X401126Y581000D03*
X375000Y480000D03*
X375000Y455000D03*
X358000Y444000D03*
X190000Y580000D03*
X165000Y620000D03*
X448000Y612000D03*
X470000Y730000D03*
X438500Y605500D03*
X440000Y705000D03*
X415000Y845000D03*
X430000Y590000D03*
X430000Y685000D03*
X315000Y740000D03*
X352000Y704500D03*
X362000Y485500D03*
X390000Y670000D03*
X449500Y511000D03*
X420000Y500000D03*
X408500Y497500D03*
X120000Y815000D03*
X25000Y770000D03*
X530000Y440000D03*
X235000Y445000D03*
X135000Y655000D03*
X265000Y675000D03*
X260000Y405000D03*
X175000Y630000D03*
X175000Y595000D03*
X175000Y560000D03*
X140000Y365000D03*
X260000Y255000D03*
X170000Y270000D03*
X525000Y355000D03*
X530000Y325000D03*
X395000Y409959D03*
X145500Y306500D03*
X462000Y560000D03*
X435000Y295000D03*
X415000Y295000D03*
X55704Y224896D03*
X53044Y365000D03*
X70000Y365000D03*
X342500Y833000D03*
D53*
X35000Y865000D03*
X715000Y865000D03*
X35000Y35000D03*
X715000Y35000D03*
D50*
X245000Y295000D03*
X450000Y292000D03*
X350000Y405000D03*
X350000Y260000D03*
M02*
