G04 EAGLE Gerber RS-274X export*
G75*
%MOMM*%
%FSLAX34Y34*%
%LPD*%
%INSolderpaste Top*%
%IPPOS*%
%AMOC8*
5,1,8,0,0,1.08239X$1,22.5*%
G01*
%ADD10R,0.900000X0.700000*%
%ADD11R,1.800000X2.750000*%
%ADD12R,5.500000X1.850000*%
%ADD13R,0.700000X0.900000*%
%ADD14R,1.800000X1.700000*%
%ADD15R,2.100000X1.270000*%
%ADD16R,0.700000X0.600000*%
%ADD17R,0.600000X0.700000*%
%ADD18R,1.498600X2.006600*%
%ADD19R,3.810000X2.006600*%
%ADD20R,0.800000X1.200000*%
%ADD21R,2.500000X3.250000*%
%ADD22R,1.200000X0.800000*%
%ADD23R,1.000000X1.400000*%
%ADD24R,5.334000X1.930400*%
%ADD25R,1.900000X1.300000*%
%ADD26R,1.300000X1.500000*%
%ADD27R,1.500000X1.300000*%
%ADD28R,2.200000X4.200000*%
%ADD29R,0.800000X0.900000*%
%ADD30R,1.400000X1.000000*%
%ADD31R,0.558800X1.270000*%
%ADD32R,2.032000X0.660400*%
%ADD33R,0.350000X0.900000*%
%ADD34R,1.422400X0.533400*%
%ADD35C,0.140000*%
%ADD36R,2.500000X2.000000*%
%ADD37R,3.300000X2.000000*%
%ADD38R,3.100000X0.500000*%
%ADD39R,5.000000X4.600000*%


D10*
X47200Y415200D03*
X47200Y428200D03*
D11*
X139600Y77250D03*
X139600Y24750D03*
D10*
X169300Y76300D03*
X169300Y63300D03*
D12*
X655000Y155500D03*
X655000Y104500D03*
X655000Y184500D03*
X655000Y235500D03*
D10*
X564300Y344800D03*
X564300Y331800D03*
D12*
X655000Y70500D03*
X655000Y19500D03*
X585000Y184500D03*
X585000Y235500D03*
D13*
X126700Y164300D03*
X139700Y164300D03*
D10*
X199700Y134200D03*
X199700Y147200D03*
D13*
X43300Y352200D03*
X30300Y352200D03*
D10*
X255700Y419700D03*
X255700Y432700D03*
D11*
X286400Y421350D03*
X286400Y473850D03*
X181400Y420250D03*
X181400Y472750D03*
D13*
X206200Y499300D03*
X219200Y499300D03*
D10*
X302800Y681800D03*
X302800Y668800D03*
X207800Y677600D03*
X207800Y664600D03*
X480700Y587700D03*
X480700Y600700D03*
D13*
X498500Y585000D03*
X511500Y585000D03*
X314300Y620700D03*
X301300Y620700D03*
X497200Y484300D03*
X510200Y484300D03*
X85700Y369300D03*
X98700Y369300D03*
D10*
X395700Y593500D03*
X395700Y606500D03*
D13*
X339800Y495700D03*
X326800Y495700D03*
D10*
X449300Y453300D03*
X449300Y440300D03*
X382200Y593500D03*
X382200Y606500D03*
D13*
X498500Y545000D03*
X511500Y545000D03*
X498500Y560000D03*
X511500Y560000D03*
X498500Y530000D03*
X511500Y530000D03*
X636500Y530000D03*
X623500Y530000D03*
X551500Y487500D03*
X538500Y487500D03*
X380300Y830700D03*
X367300Y830700D03*
D10*
X80700Y392200D03*
X80700Y405200D03*
D13*
X551500Y500000D03*
X538500Y500000D03*
X553500Y530000D03*
X566500Y530000D03*
X368500Y325000D03*
X381500Y325000D03*
X268500Y325000D03*
X281500Y325000D03*
X468500Y320000D03*
X481500Y320000D03*
X368500Y420000D03*
X381500Y420000D03*
X313500Y325000D03*
X326500Y325000D03*
D12*
X515000Y19500D03*
X515000Y70500D03*
X515000Y99500D03*
X515000Y150500D03*
D11*
X203600Y77250D03*
X203600Y24750D03*
D14*
X605500Y30000D03*
X564500Y30000D03*
D15*
X94900Y313000D03*
X94900Y273400D03*
D16*
X583700Y382100D03*
X583700Y401100D03*
X563700Y391600D03*
D17*
X109500Y663700D03*
X90500Y663700D03*
X100000Y643700D03*
D14*
X564500Y60000D03*
X605500Y60000D03*
X605500Y90000D03*
X564500Y90000D03*
X564500Y120000D03*
X605500Y120000D03*
X605500Y150000D03*
X564500Y150000D03*
D15*
X115100Y208500D03*
X115100Y248100D03*
D18*
X233694Y640104D03*
X256554Y640104D03*
X279414Y640104D03*
D19*
X256300Y703096D03*
D20*
X77100Y18600D03*
X95100Y18600D03*
D21*
X247600Y368400D03*
X187600Y368400D03*
D22*
X411400Y594000D03*
X411400Y612000D03*
D20*
X494100Y621400D03*
X476100Y621400D03*
D23*
X650200Y356500D03*
X640700Y378500D03*
X659700Y378500D03*
D24*
X555340Y573900D03*
X651860Y573900D03*
D25*
X576800Y499600D03*
X576800Y444600D03*
X608800Y444600D03*
X608800Y499600D03*
D16*
X20800Y430800D03*
X20800Y420800D03*
D17*
X641700Y402300D03*
X651700Y402300D03*
D16*
X102600Y404800D03*
X102600Y394800D03*
D26*
X99500Y72400D03*
X80500Y72400D03*
X724500Y240000D03*
X705500Y240000D03*
X705500Y215000D03*
X724500Y215000D03*
X724500Y190000D03*
X705500Y190000D03*
D17*
X696700Y275400D03*
X686700Y275400D03*
X72800Y182300D03*
X82800Y182300D03*
X646100Y322700D03*
X636100Y322700D03*
D16*
X542700Y335000D03*
X542700Y345000D03*
D17*
X192500Y277600D03*
X202500Y277600D03*
X191100Y201200D03*
X181100Y201200D03*
D26*
X158400Y187700D03*
X139400Y187700D03*
D17*
X82600Y332400D03*
X92600Y332400D03*
X182200Y847300D03*
X192200Y847300D03*
D16*
X215000Y705000D03*
X215000Y715000D03*
X177700Y768300D03*
X177700Y778300D03*
D17*
X255600Y772700D03*
X245600Y772700D03*
D16*
X215000Y790300D03*
X215000Y780300D03*
X607300Y389500D03*
X607300Y379500D03*
D17*
X53400Y622700D03*
X43400Y622700D03*
D16*
X121200Y279500D03*
X121200Y289500D03*
D17*
X524200Y377400D03*
X514200Y377400D03*
X471900Y417600D03*
X481900Y417600D03*
X82700Y622300D03*
X92700Y622300D03*
X408900Y686200D03*
X398900Y686200D03*
D16*
X162600Y711500D03*
X162600Y701500D03*
D17*
X128800Y677300D03*
X138800Y677300D03*
D16*
X688800Y822200D03*
X688800Y812200D03*
X41200Y802200D03*
X41200Y812200D03*
D17*
X135000Y552500D03*
X125000Y552500D03*
X41400Y237400D03*
X31400Y237400D03*
X135000Y540000D03*
X125000Y540000D03*
X290400Y777400D03*
X280400Y777400D03*
D16*
X348800Y810500D03*
X348800Y800500D03*
X370000Y675000D03*
X370000Y685000D03*
D27*
X326200Y808800D03*
X326200Y827800D03*
D17*
X365000Y795000D03*
X375000Y795000D03*
D16*
X365000Y300000D03*
X365000Y290000D03*
X265000Y300000D03*
X265000Y290000D03*
X465000Y300000D03*
X465000Y290000D03*
X365000Y400000D03*
X365000Y390000D03*
D26*
X524500Y230000D03*
X505500Y230000D03*
D16*
X310000Y300000D03*
X310000Y290000D03*
X385000Y300000D03*
X385000Y290000D03*
X285000Y300000D03*
X285000Y290000D03*
X485000Y300000D03*
X485000Y290000D03*
X385000Y400000D03*
X385000Y390000D03*
X330000Y300000D03*
X330000Y290000D03*
D27*
X500000Y180500D03*
X500000Y199500D03*
X530000Y180500D03*
X530000Y199500D03*
D17*
X639400Y337700D03*
X629400Y337700D03*
D26*
X104500Y42400D03*
X85500Y42400D03*
D28*
X60800Y751600D03*
X60800Y681600D03*
D29*
X190100Y295900D03*
X209100Y295900D03*
X199600Y315900D03*
X199500Y824100D03*
X180500Y824100D03*
X190000Y804100D03*
D23*
X241500Y823500D03*
X251000Y801500D03*
X232000Y801500D03*
D29*
X511500Y392500D03*
X530500Y392500D03*
X521000Y412500D03*
D23*
X472800Y376500D03*
X463300Y398500D03*
X482300Y398500D03*
X132200Y722400D03*
X141700Y700400D03*
X122700Y700400D03*
D30*
X298500Y815000D03*
X276500Y805500D03*
X276500Y824500D03*
D23*
X316000Y777400D03*
X325500Y755400D03*
X306500Y755400D03*
D30*
X168500Y285600D03*
X146500Y276100D03*
X146500Y295100D03*
D29*
X132700Y380900D03*
X151700Y380900D03*
X142200Y400900D03*
X125300Y316900D03*
X144300Y316900D03*
X134800Y336900D03*
X47100Y199100D03*
X28100Y199100D03*
X37600Y179100D03*
D23*
X75100Y233500D03*
X84600Y211500D03*
X65600Y211500D03*
D30*
X608500Y336200D03*
X586500Y326700D03*
X586500Y345700D03*
X213500Y230000D03*
X191500Y220500D03*
X191500Y239500D03*
X146500Y230000D03*
X168500Y239500D03*
X168500Y220500D03*
D31*
X21702Y373046D03*
X31100Y373046D03*
X40498Y373046D03*
X40498Y398954D03*
X21702Y398954D03*
D32*
X174934Y105550D03*
X113466Y105550D03*
X174934Y118250D03*
X174934Y130950D03*
X113466Y118250D03*
X113466Y130950D03*
X174934Y143650D03*
X113466Y143650D03*
D33*
X231150Y474550D03*
X224650Y474550D03*
X218150Y474550D03*
X211650Y474550D03*
X211650Y417050D03*
X218150Y417050D03*
X224650Y417050D03*
X231150Y417050D03*
D34*
X278160Y600950D03*
X278160Y588250D03*
X278160Y575550D03*
X278160Y562850D03*
X334040Y562850D03*
X334040Y575550D03*
X334040Y588250D03*
X334040Y600950D03*
D35*
X456500Y496300D02*
X456500Y494900D01*
X456500Y496300D02*
X470700Y496300D01*
X470700Y494900D01*
X456500Y494900D01*
X456500Y496230D02*
X470700Y496230D01*
X456500Y499900D02*
X456500Y501300D01*
X470700Y501300D01*
X470700Y499900D01*
X456500Y499900D01*
X456500Y501230D02*
X470700Y501230D01*
X456500Y504900D02*
X456500Y506300D01*
X470700Y506300D01*
X470700Y504900D01*
X456500Y504900D01*
X456500Y506230D02*
X470700Y506230D01*
X456500Y509900D02*
X456500Y511300D01*
X470700Y511300D01*
X470700Y509900D01*
X456500Y509900D01*
X456500Y511230D02*
X470700Y511230D01*
X456500Y514900D02*
X456500Y516300D01*
X470700Y516300D01*
X470700Y514900D01*
X456500Y514900D01*
X456500Y516230D02*
X470700Y516230D01*
X456500Y519900D02*
X456500Y521300D01*
X470700Y521300D01*
X470700Y519900D01*
X456500Y519900D01*
X456500Y521230D02*
X470700Y521230D01*
X456500Y524900D02*
X456500Y526300D01*
X470700Y526300D01*
X470700Y524900D01*
X456500Y524900D01*
X456500Y526230D02*
X470700Y526230D01*
X456500Y529900D02*
X456500Y531300D01*
X470700Y531300D01*
X470700Y529900D01*
X456500Y529900D01*
X456500Y531230D02*
X470700Y531230D01*
X456500Y534900D02*
X456500Y536300D01*
X470700Y536300D01*
X470700Y534900D01*
X456500Y534900D01*
X456500Y536230D02*
X470700Y536230D01*
X456500Y539900D02*
X456500Y541300D01*
X470700Y541300D01*
X470700Y539900D01*
X456500Y539900D01*
X456500Y541230D02*
X470700Y541230D01*
X456500Y544900D02*
X456500Y546300D01*
X470700Y546300D01*
X470700Y544900D01*
X456500Y544900D01*
X456500Y546230D02*
X470700Y546230D01*
X456500Y549900D02*
X456500Y551300D01*
X470700Y551300D01*
X470700Y549900D01*
X456500Y549900D01*
X456500Y551230D02*
X470700Y551230D01*
X450000Y572000D02*
X448600Y572000D01*
X450000Y572000D02*
X450000Y557800D01*
X448600Y557800D01*
X448600Y572000D01*
X448600Y559130D02*
X450000Y559130D01*
X450000Y560460D02*
X448600Y560460D01*
X448600Y561790D02*
X450000Y561790D01*
X450000Y563120D02*
X448600Y563120D01*
X448600Y564450D02*
X450000Y564450D01*
X450000Y565780D02*
X448600Y565780D01*
X448600Y567110D02*
X450000Y567110D01*
X450000Y568440D02*
X448600Y568440D01*
X448600Y569770D02*
X450000Y569770D01*
X450000Y571100D02*
X448600Y571100D01*
X445000Y572000D02*
X443600Y572000D01*
X445000Y572000D02*
X445000Y557800D01*
X443600Y557800D01*
X443600Y572000D01*
X443600Y559130D02*
X445000Y559130D01*
X445000Y560460D02*
X443600Y560460D01*
X443600Y561790D02*
X445000Y561790D01*
X445000Y563120D02*
X443600Y563120D01*
X443600Y564450D02*
X445000Y564450D01*
X445000Y565780D02*
X443600Y565780D01*
X443600Y567110D02*
X445000Y567110D01*
X445000Y568440D02*
X443600Y568440D01*
X443600Y569770D02*
X445000Y569770D01*
X445000Y571100D02*
X443600Y571100D01*
X440000Y572000D02*
X438600Y572000D01*
X440000Y572000D02*
X440000Y557800D01*
X438600Y557800D01*
X438600Y572000D01*
X438600Y559130D02*
X440000Y559130D01*
X440000Y560460D02*
X438600Y560460D01*
X438600Y561790D02*
X440000Y561790D01*
X440000Y563120D02*
X438600Y563120D01*
X438600Y564450D02*
X440000Y564450D01*
X440000Y565780D02*
X438600Y565780D01*
X438600Y567110D02*
X440000Y567110D01*
X440000Y568440D02*
X438600Y568440D01*
X438600Y569770D02*
X440000Y569770D01*
X440000Y571100D02*
X438600Y571100D01*
X435000Y572000D02*
X433600Y572000D01*
X435000Y572000D02*
X435000Y557800D01*
X433600Y557800D01*
X433600Y572000D01*
X433600Y559130D02*
X435000Y559130D01*
X435000Y560460D02*
X433600Y560460D01*
X433600Y561790D02*
X435000Y561790D01*
X435000Y563120D02*
X433600Y563120D01*
X433600Y564450D02*
X435000Y564450D01*
X435000Y565780D02*
X433600Y565780D01*
X433600Y567110D02*
X435000Y567110D01*
X435000Y568440D02*
X433600Y568440D01*
X433600Y569770D02*
X435000Y569770D01*
X435000Y571100D02*
X433600Y571100D01*
X430000Y572000D02*
X428600Y572000D01*
X430000Y572000D02*
X430000Y557800D01*
X428600Y557800D01*
X428600Y572000D01*
X428600Y559130D02*
X430000Y559130D01*
X430000Y560460D02*
X428600Y560460D01*
X428600Y561790D02*
X430000Y561790D01*
X430000Y563120D02*
X428600Y563120D01*
X428600Y564450D02*
X430000Y564450D01*
X430000Y565780D02*
X428600Y565780D01*
X428600Y567110D02*
X430000Y567110D01*
X430000Y568440D02*
X428600Y568440D01*
X428600Y569770D02*
X430000Y569770D01*
X430000Y571100D02*
X428600Y571100D01*
X425000Y572000D02*
X423600Y572000D01*
X425000Y572000D02*
X425000Y557800D01*
X423600Y557800D01*
X423600Y572000D01*
X423600Y559130D02*
X425000Y559130D01*
X425000Y560460D02*
X423600Y560460D01*
X423600Y561790D02*
X425000Y561790D01*
X425000Y563120D02*
X423600Y563120D01*
X423600Y564450D02*
X425000Y564450D01*
X425000Y565780D02*
X423600Y565780D01*
X423600Y567110D02*
X425000Y567110D01*
X425000Y568440D02*
X423600Y568440D01*
X423600Y569770D02*
X425000Y569770D01*
X425000Y571100D02*
X423600Y571100D01*
X420000Y572000D02*
X418600Y572000D01*
X420000Y572000D02*
X420000Y557800D01*
X418600Y557800D01*
X418600Y572000D01*
X418600Y559130D02*
X420000Y559130D01*
X420000Y560460D02*
X418600Y560460D01*
X418600Y561790D02*
X420000Y561790D01*
X420000Y563120D02*
X418600Y563120D01*
X418600Y564450D02*
X420000Y564450D01*
X420000Y565780D02*
X418600Y565780D01*
X418600Y567110D02*
X420000Y567110D01*
X420000Y568440D02*
X418600Y568440D01*
X418600Y569770D02*
X420000Y569770D01*
X420000Y571100D02*
X418600Y571100D01*
X415000Y572000D02*
X413600Y572000D01*
X415000Y572000D02*
X415000Y557800D01*
X413600Y557800D01*
X413600Y572000D01*
X413600Y559130D02*
X415000Y559130D01*
X415000Y560460D02*
X413600Y560460D01*
X413600Y561790D02*
X415000Y561790D01*
X415000Y563120D02*
X413600Y563120D01*
X413600Y564450D02*
X415000Y564450D01*
X415000Y565780D02*
X413600Y565780D01*
X413600Y567110D02*
X415000Y567110D01*
X415000Y568440D02*
X413600Y568440D01*
X413600Y569770D02*
X415000Y569770D01*
X415000Y571100D02*
X413600Y571100D01*
X410000Y572000D02*
X408600Y572000D01*
X410000Y572000D02*
X410000Y557800D01*
X408600Y557800D01*
X408600Y572000D01*
X408600Y559130D02*
X410000Y559130D01*
X410000Y560460D02*
X408600Y560460D01*
X408600Y561790D02*
X410000Y561790D01*
X410000Y563120D02*
X408600Y563120D01*
X408600Y564450D02*
X410000Y564450D01*
X410000Y565780D02*
X408600Y565780D01*
X408600Y567110D02*
X410000Y567110D01*
X410000Y568440D02*
X408600Y568440D01*
X408600Y569770D02*
X410000Y569770D01*
X410000Y571100D02*
X408600Y571100D01*
X405000Y572000D02*
X403600Y572000D01*
X405000Y572000D02*
X405000Y557800D01*
X403600Y557800D01*
X403600Y572000D01*
X403600Y559130D02*
X405000Y559130D01*
X405000Y560460D02*
X403600Y560460D01*
X403600Y561790D02*
X405000Y561790D01*
X405000Y563120D02*
X403600Y563120D01*
X403600Y564450D02*
X405000Y564450D01*
X405000Y565780D02*
X403600Y565780D01*
X403600Y567110D02*
X405000Y567110D01*
X405000Y568440D02*
X403600Y568440D01*
X403600Y569770D02*
X405000Y569770D01*
X405000Y571100D02*
X403600Y571100D01*
X400000Y572000D02*
X398600Y572000D01*
X400000Y572000D02*
X400000Y557800D01*
X398600Y557800D01*
X398600Y572000D01*
X398600Y559130D02*
X400000Y559130D01*
X400000Y560460D02*
X398600Y560460D01*
X398600Y561790D02*
X400000Y561790D01*
X400000Y563120D02*
X398600Y563120D01*
X398600Y564450D02*
X400000Y564450D01*
X400000Y565780D02*
X398600Y565780D01*
X398600Y567110D02*
X400000Y567110D01*
X400000Y568440D02*
X398600Y568440D01*
X398600Y569770D02*
X400000Y569770D01*
X400000Y571100D02*
X398600Y571100D01*
X395000Y572000D02*
X393600Y572000D01*
X395000Y572000D02*
X395000Y557800D01*
X393600Y557800D01*
X393600Y572000D01*
X393600Y559130D02*
X395000Y559130D01*
X395000Y560460D02*
X393600Y560460D01*
X393600Y561790D02*
X395000Y561790D01*
X395000Y563120D02*
X393600Y563120D01*
X393600Y564450D02*
X395000Y564450D01*
X395000Y565780D02*
X393600Y565780D01*
X393600Y567110D02*
X395000Y567110D01*
X395000Y568440D02*
X393600Y568440D01*
X393600Y569770D02*
X395000Y569770D01*
X395000Y571100D02*
X393600Y571100D01*
X372900Y551300D02*
X372900Y549900D01*
X372900Y551300D02*
X387100Y551300D01*
X387100Y549900D01*
X372900Y549900D01*
X372900Y551230D02*
X387100Y551230D01*
X372900Y546300D02*
X372900Y544900D01*
X372900Y546300D02*
X387100Y546300D01*
X387100Y544900D01*
X372900Y544900D01*
X372900Y546230D02*
X387100Y546230D01*
X372900Y541300D02*
X372900Y539900D01*
X372900Y541300D02*
X387100Y541300D01*
X387100Y539900D01*
X372900Y539900D01*
X372900Y541230D02*
X387100Y541230D01*
X372900Y536300D02*
X372900Y534900D01*
X372900Y536300D02*
X387100Y536300D01*
X387100Y534900D01*
X372900Y534900D01*
X372900Y536230D02*
X387100Y536230D01*
X372900Y531300D02*
X372900Y529900D01*
X372900Y531300D02*
X387100Y531300D01*
X387100Y529900D01*
X372900Y529900D01*
X372900Y531230D02*
X387100Y531230D01*
X372900Y526300D02*
X372900Y524900D01*
X372900Y526300D02*
X387100Y526300D01*
X387100Y524900D01*
X372900Y524900D01*
X372900Y526230D02*
X387100Y526230D01*
X372900Y521300D02*
X372900Y519900D01*
X372900Y521300D02*
X387100Y521300D01*
X387100Y519900D01*
X372900Y519900D01*
X372900Y521230D02*
X387100Y521230D01*
X372900Y516300D02*
X372900Y514900D01*
X372900Y516300D02*
X387100Y516300D01*
X387100Y514900D01*
X372900Y514900D01*
X372900Y516230D02*
X387100Y516230D01*
X372900Y511300D02*
X372900Y509900D01*
X372900Y511300D02*
X387100Y511300D01*
X387100Y509900D01*
X372900Y509900D01*
X372900Y511230D02*
X387100Y511230D01*
X372900Y506300D02*
X372900Y504900D01*
X372900Y506300D02*
X387100Y506300D01*
X387100Y504900D01*
X372900Y504900D01*
X372900Y506230D02*
X387100Y506230D01*
X372900Y501300D02*
X372900Y499900D01*
X372900Y501300D02*
X387100Y501300D01*
X387100Y499900D01*
X372900Y499900D01*
X372900Y501230D02*
X387100Y501230D01*
X372900Y496300D02*
X372900Y494900D01*
X372900Y496300D02*
X387100Y496300D01*
X387100Y494900D01*
X372900Y494900D01*
X372900Y496230D02*
X387100Y496230D01*
X393600Y488400D02*
X395000Y488400D01*
X395000Y474200D01*
X393600Y474200D01*
X393600Y488400D01*
X393600Y475530D02*
X395000Y475530D01*
X395000Y476860D02*
X393600Y476860D01*
X393600Y478190D02*
X395000Y478190D01*
X395000Y479520D02*
X393600Y479520D01*
X393600Y480850D02*
X395000Y480850D01*
X395000Y482180D02*
X393600Y482180D01*
X393600Y483510D02*
X395000Y483510D01*
X395000Y484840D02*
X393600Y484840D01*
X393600Y486170D02*
X395000Y486170D01*
X395000Y487500D02*
X393600Y487500D01*
X398600Y488400D02*
X400000Y488400D01*
X400000Y474200D01*
X398600Y474200D01*
X398600Y488400D01*
X398600Y475530D02*
X400000Y475530D01*
X400000Y476860D02*
X398600Y476860D01*
X398600Y478190D02*
X400000Y478190D01*
X400000Y479520D02*
X398600Y479520D01*
X398600Y480850D02*
X400000Y480850D01*
X400000Y482180D02*
X398600Y482180D01*
X398600Y483510D02*
X400000Y483510D01*
X400000Y484840D02*
X398600Y484840D01*
X398600Y486170D02*
X400000Y486170D01*
X400000Y487500D02*
X398600Y487500D01*
X403600Y488400D02*
X405000Y488400D01*
X405000Y474200D01*
X403600Y474200D01*
X403600Y488400D01*
X403600Y475530D02*
X405000Y475530D01*
X405000Y476860D02*
X403600Y476860D01*
X403600Y478190D02*
X405000Y478190D01*
X405000Y479520D02*
X403600Y479520D01*
X403600Y480850D02*
X405000Y480850D01*
X405000Y482180D02*
X403600Y482180D01*
X403600Y483510D02*
X405000Y483510D01*
X405000Y484840D02*
X403600Y484840D01*
X403600Y486170D02*
X405000Y486170D01*
X405000Y487500D02*
X403600Y487500D01*
X408600Y488400D02*
X410000Y488400D01*
X410000Y474200D01*
X408600Y474200D01*
X408600Y488400D01*
X408600Y475530D02*
X410000Y475530D01*
X410000Y476860D02*
X408600Y476860D01*
X408600Y478190D02*
X410000Y478190D01*
X410000Y479520D02*
X408600Y479520D01*
X408600Y480850D02*
X410000Y480850D01*
X410000Y482180D02*
X408600Y482180D01*
X408600Y483510D02*
X410000Y483510D01*
X410000Y484840D02*
X408600Y484840D01*
X408600Y486170D02*
X410000Y486170D01*
X410000Y487500D02*
X408600Y487500D01*
X413600Y488400D02*
X415000Y488400D01*
X415000Y474200D01*
X413600Y474200D01*
X413600Y488400D01*
X413600Y475530D02*
X415000Y475530D01*
X415000Y476860D02*
X413600Y476860D01*
X413600Y478190D02*
X415000Y478190D01*
X415000Y479520D02*
X413600Y479520D01*
X413600Y480850D02*
X415000Y480850D01*
X415000Y482180D02*
X413600Y482180D01*
X413600Y483510D02*
X415000Y483510D01*
X415000Y484840D02*
X413600Y484840D01*
X413600Y486170D02*
X415000Y486170D01*
X415000Y487500D02*
X413600Y487500D01*
X418600Y488400D02*
X420000Y488400D01*
X420000Y474200D01*
X418600Y474200D01*
X418600Y488400D01*
X418600Y475530D02*
X420000Y475530D01*
X420000Y476860D02*
X418600Y476860D01*
X418600Y478190D02*
X420000Y478190D01*
X420000Y479520D02*
X418600Y479520D01*
X418600Y480850D02*
X420000Y480850D01*
X420000Y482180D02*
X418600Y482180D01*
X418600Y483510D02*
X420000Y483510D01*
X420000Y484840D02*
X418600Y484840D01*
X418600Y486170D02*
X420000Y486170D01*
X420000Y487500D02*
X418600Y487500D01*
X423600Y488400D02*
X425000Y488400D01*
X425000Y474200D01*
X423600Y474200D01*
X423600Y488400D01*
X423600Y475530D02*
X425000Y475530D01*
X425000Y476860D02*
X423600Y476860D01*
X423600Y478190D02*
X425000Y478190D01*
X425000Y479520D02*
X423600Y479520D01*
X423600Y480850D02*
X425000Y480850D01*
X425000Y482180D02*
X423600Y482180D01*
X423600Y483510D02*
X425000Y483510D01*
X425000Y484840D02*
X423600Y484840D01*
X423600Y486170D02*
X425000Y486170D01*
X425000Y487500D02*
X423600Y487500D01*
X428600Y488400D02*
X430000Y488400D01*
X430000Y474200D01*
X428600Y474200D01*
X428600Y488400D01*
X428600Y475530D02*
X430000Y475530D01*
X430000Y476860D02*
X428600Y476860D01*
X428600Y478190D02*
X430000Y478190D01*
X430000Y479520D02*
X428600Y479520D01*
X428600Y480850D02*
X430000Y480850D01*
X430000Y482180D02*
X428600Y482180D01*
X428600Y483510D02*
X430000Y483510D01*
X430000Y484840D02*
X428600Y484840D01*
X428600Y486170D02*
X430000Y486170D01*
X430000Y487500D02*
X428600Y487500D01*
X433600Y488400D02*
X435000Y488400D01*
X435000Y474200D01*
X433600Y474200D01*
X433600Y488400D01*
X433600Y475530D02*
X435000Y475530D01*
X435000Y476860D02*
X433600Y476860D01*
X433600Y478190D02*
X435000Y478190D01*
X435000Y479520D02*
X433600Y479520D01*
X433600Y480850D02*
X435000Y480850D01*
X435000Y482180D02*
X433600Y482180D01*
X433600Y483510D02*
X435000Y483510D01*
X435000Y484840D02*
X433600Y484840D01*
X433600Y486170D02*
X435000Y486170D01*
X435000Y487500D02*
X433600Y487500D01*
X438600Y488400D02*
X440000Y488400D01*
X440000Y474200D01*
X438600Y474200D01*
X438600Y488400D01*
X438600Y475530D02*
X440000Y475530D01*
X440000Y476860D02*
X438600Y476860D01*
X438600Y478190D02*
X440000Y478190D01*
X440000Y479520D02*
X438600Y479520D01*
X438600Y480850D02*
X440000Y480850D01*
X440000Y482180D02*
X438600Y482180D01*
X438600Y483510D02*
X440000Y483510D01*
X440000Y484840D02*
X438600Y484840D01*
X438600Y486170D02*
X440000Y486170D01*
X440000Y487500D02*
X438600Y487500D01*
X443600Y488400D02*
X445000Y488400D01*
X445000Y474200D01*
X443600Y474200D01*
X443600Y488400D01*
X443600Y475530D02*
X445000Y475530D01*
X445000Y476860D02*
X443600Y476860D01*
X443600Y478190D02*
X445000Y478190D01*
X445000Y479520D02*
X443600Y479520D01*
X443600Y480850D02*
X445000Y480850D01*
X445000Y482180D02*
X443600Y482180D01*
X443600Y483510D02*
X445000Y483510D01*
X445000Y484840D02*
X443600Y484840D01*
X443600Y486170D02*
X445000Y486170D01*
X445000Y487500D02*
X443600Y487500D01*
X448600Y488400D02*
X450000Y488400D01*
X450000Y474200D01*
X448600Y474200D01*
X448600Y488400D01*
X448600Y475530D02*
X450000Y475530D01*
X450000Y476860D02*
X448600Y476860D01*
X448600Y478190D02*
X450000Y478190D01*
X450000Y479520D02*
X448600Y479520D01*
X448600Y480850D02*
X450000Y480850D01*
X450000Y482180D02*
X448600Y482180D01*
X448600Y483510D02*
X450000Y483510D01*
X450000Y484840D02*
X448600Y484840D01*
X448600Y486170D02*
X450000Y486170D01*
X450000Y487500D02*
X448600Y487500D01*
D36*
X23300Y497400D03*
X23300Y586400D03*
D37*
X82300Y497400D03*
X82300Y586400D03*
D38*
X83300Y557900D03*
X83300Y549900D03*
X83300Y541900D03*
X83300Y533900D03*
X83300Y525900D03*
D22*
X150000Y436000D03*
X150000Y454000D03*
D39*
X675000Y742000D03*
X382000Y742000D03*
M02*
