M48
;GenerationSoftware,Autodesk,EAGLE,9.3.0*%
;CreationDate,2020-03-17T15:04:18Z*%
FMAT,2
ICI,OFF
METRIC,TZ,000.000
T8C0.400
T7C0.800
T6C0.813
T5C0.900
T4C1.000
T3C1.016
T2C3.000
T1C3.200
%
G90
M71
T1
X71500Y86500
X3500Y3500
X71500Y3500
X3500Y86500
T2
X66650Y44920
X66650Y87420
X8350Y87420
X8350Y44920
T3
X45120Y87420
X42580Y87420
X40040Y87420
X37500Y87420
X34960Y87420
X72000Y48480
X32420Y87420
X27340Y87420
X24800Y87420
X22260Y87420
X72000Y65300
X72000Y62760
X72000Y60220
X72000Y81270
X72000Y78730
X72000Y74500
X72000Y71960
X72000Y69420
X72000Y56100
X72000Y53560
X72000Y51020
X29880Y87420
X72000Y45940
X52740Y87420
X50200Y87420
X47660Y87420
T4
X20500Y10500
X14500Y11500
X33140Y15500
X24140Y4700
X42140Y22700
X42140Y4700
X33140Y11900
X34940Y13700
X31340Y13700
X33140Y24900
X33140Y2500
X44340Y13700
X21940Y13700
X24140Y22700
X4025Y28750
X4025Y31250
X71350Y14550
X71350Y9550
T5
X5330Y51990
X5330Y56390
T6
X61380Y27360
X66460Y27360
T7
X12000Y2000
X8500Y15500
X21000Y20500
T8
X58275Y62725
X31500Y53000
X37000Y64000
X57500Y66000
X32500Y54000
X38000Y63000
X58500Y64000
X63000Y45000
X44100Y53000
X40626Y54500
X36000Y47500
X32000Y45500
X33500Y40500
X51500Y44500
X38600Y44000
X38500Y47950
X39500Y51000
X50200Y44750
X39550Y44750
X48700Y45450
X40500Y45350
X35000Y29500
X46500Y58000
X52000Y64888
X35200Y64900
X14500Y62500
X40000Y39004
X42350Y40700
X43126Y43304
X34200Y44350
X44000Y39500
X48000Y34500
X40113Y58100
X37500Y48000
X37500Y45500
X35800Y44400
X19000Y58000
X25500Y62000
X44800Y61200
X47000Y73000
X43850Y60550
X44000Y70500
X41500Y84500
X43000Y59000
X43000Y68500
X31500Y74000
X35200Y70450
X36200Y48550
X39000Y67000
X44950Y51100
X42000Y50000
X40850Y49750
X12000Y81500
X2500Y77000
X53000Y44000
X23500Y44500
X13500Y65500
X26500Y67500
X26000Y40500
X17500Y63000
X17500Y59500
X17500Y56000
X14000Y36500
X26000Y25500
X17000Y27000
X52500Y35500
X53000Y32500
X39500Y40996
X14550Y30650
X46200Y56000
X43500Y29500
X41500Y29500
X5570Y22490
X5304Y36500
X7000Y36500
X34250Y83300
X35500Y59000
X35000Y48500
X46000Y47000
X59000Y25500
X24500Y29500
X45000Y29200
X35000Y40500
X35000Y26000
X41000Y30500
X38150Y31000
X32650Y31000
X28150Y31000
X6650Y61250
X45000Y41500
X13300Y27450
X46500Y77000
X51000Y60400
X50050Y57194
X43350Y49800
X48500Y73500
X29500Y56500
X31000Y59500
X38000Y81500
X29500Y79500
X30000Y60500
X31000Y41500
X31000Y37500
X67000Y42000
X60000Y40000
X36500Y61000
X38250Y61900
X46500Y48500
X46500Y67000
X16500Y62000
X11000Y57000
X6500Y40500
X4500Y60500
X44950Y53750
X50300Y43000
X55000Y39000
X44100Y54604
X62000Y39500
X13300Y13100
X11500Y9000
X15000Y14500
X15000Y20500
X20500Y18500
X14500Y13000
X20000Y78500
X21000Y73000
X49000Y57500
X53500Y66000
X35000Y66500
X24000Y75500
X12500Y39500
X47300Y55900
X45950Y57100
X51750Y62750
M30